<?xml version="1.0" standalone="no"?>
<!DOCTYPE svg PUBLIC "-//W3C//DTD SVG 20010904//EN"
 "http://www.w3.org/TR/2001/REC-SVG-20010904/DTD/svg10.dtd">
<svg version="1.0" xmlns="http://www.w3.org/2000/svg"
 width="500.000000pt" height="500.000000pt" viewBox="0 0 500.000000 500.000000"
 preserveAspectRatio="xMidYMid meet">
<metadata>
Created by potrace 1.11, written by Peter Selinger 2001-2013
</metadata>
<g transform="translate(0.000000,500.000000) scale(0.100000,-0.100000)"
fill="#000000" stroke="none">
<path d="M430 4418 c-68 -80 -134 -187 -162 -261 -22 -57 -24 -157 -4 -196 79
-151 403 -225 1008 -230 242 -2 358 -15 475 -53 85 -28 177 -90 221 -147 31
-41 33 -49 27 -90 -10 -65 -48 -183 -117 -359 -59 -150 -61 -153 -141 -239
-116 -122 -283 -250 -412 -315 -61 -31 -204 -83 -210 -76 -3 2 38 105 91 229
171 400 245 601 260 701 3 24 7 52 9 63 5 34 -21 95 -56 132 -42 43 -136 73
-228 73 -103 0 -107 -3 -115 -67 -16 -138 -80 -319 -333 -948 -286 -710 -325
-826 -326 -965 0 -80 15 -127 59 -192 50 -71 166 -125 294 -135 l76 -6 1 129
c0 78 7 165 17 219 18 96 77 317 106 400 67 188 57 172 108 184 163 40 367
113 490 175 29 14 52 25 52 23 0 -2 -21 -53 -46 -113 -242 -573 -271 -731
-161 -876 61 -80 197 -138 325 -138 l48 0 -4 91 c-14 284 83 600 411 1349 227
519 257 632 208 789 -27 86 -62 141 -130 203 -148 134 -354 200 -832 268 -367
52 -549 108 -723 224 -87 58 -166 136 -194 194 -9 17 -19 32 -23 32 -5 0 -36
-33 -69 -72z"/>
<path d="M2714 3199 c-153 -168 -509 -1009 -777 -1835 -99 -306 -120 -399
-115 -514 4 -78 10 -105 32 -149 35 -68 107 -140 171 -171 60 -29 204 -42 206
-19 1 8 3 24 4 36 1 13 5 68 9 122 8 126 44 356 91 581 20 96 39 190 42 208 3
17 8 32 10 32 3 0 26 -17 52 -38 78 -66 124 -91 194 -108 102 -26 130 -14 247
105 255 259 527 762 571 1059 25 168 -25 322 -146 448 -68 70 -166 124 -224
124 -47 0 -85 -44 -193 -222 -110 -180 -110 -180 -98 -144 28 80 137 278 191
347 16 20 29 45 29 55 0 40 -112 93 -215 101 -54 5 -62 3 -81 -18z m294 -612
c11 -24 11 -44 -3 -132 -27 -176 -86 -358 -157 -485 -112 -201 -335 -417 -382
-370 -24 24 -6 206 35 345 54 185 98 262 283 495 139 175 194 211 224 147z"/>
<path d="M3997 3178 c-155 -191 -476 -949 -744 -1758 -126 -383 -155 -535
-123 -661 25 -97 131 -210 229 -244 25 -8 73 -15 108 -15 58 0 63 2 64 23 1
12 3 33 4 47 1 14 5 66 9 115 11 152 74 515 134 782 l7 31 50 -44 c27 -25 69
-56 92 -69 56 -33 155 -58 196 -49 124 27 371 335 551 689 199 389 230 628
108 830 -90 148 -263 257 -342 215 -26 -14 -92 -108 -189 -270 -45 -74 -81
-131 -81 -127 0 4 27 63 60 130 58 120 147 268 169 281 20 13 11 44 -19 70
-37 31 -146 66 -205 66 -39 0 -47 -4 -78 -42z m308 -592 c13 -31 13 -47 -5
-148 -52 -308 -168 -545 -354 -732 -88 -87 -156 -127 -183 -105 -49 41 49 465
138 596 68 100 226 300 284 361 72 73 99 80 120 28z"/>
</g>
</svg>
